<mxfile host="65bd71144e">
    <diagram id="R2lEEEUBdFMjLlhIrx00" name="Page-1">
        <mxGraphModel dx="667" dy="566" grid="1" gridSize="10" guides="1" tooltips="1" connect="1" arrows="1" fold="1" page="1" pageScale="1" pageWidth="850" pageHeight="1100" math="0" shadow="1" extFonts="Permanent Marker^https://fonts.googleapis.com/css?family=Permanent+Marker">
            <root>
                <mxCell id="0"/>
                <mxCell id="1" parent="0"/>
                <mxCell id="3TmcrJB_SAuxVXIHY5bZ-1" value="Administrator" style="rounded=1;arcSize=10;whiteSpace=wrap;html=1;align=center;fillColor=#dae8fc;strokeColor=#6c8ebf;fontSize=16;" parent="1" vertex="1">
                    <mxGeometry x="470" y="75" width="100" height="70" as="geometry"/>
                </mxCell>
                <mxCell id="3TmcrJB_SAuxVXIHY5bZ-2" value="Product" style="rounded=1;arcSize=10;whiteSpace=wrap;html=1;align=center;fillColor=#dae8fc;strokeColor=#6c8ebf;fontSize=16;" parent="1" vertex="1">
                    <mxGeometry x="90" y="481" width="100" height="70" as="geometry"/>
                </mxCell>
                <mxCell id="3TmcrJB_SAuxVXIHY5bZ-4" value="DeliverySquad" style="rounded=1;arcSize=10;whiteSpace=wrap;html=1;align=center;fillColor=#dae8fc;strokeColor=#6c8ebf;fontSize=16;" parent="1" vertex="1">
                    <mxGeometry x="260" y="280" width="120" height="70" as="geometry"/>
                </mxCell>
                <mxCell id="3TmcrJB_SAuxVXIHY5bZ-5" value="Customer" style="rounded=1;arcSize=10;whiteSpace=wrap;html=1;align=center;fillColor=#dae8fc;strokeColor=#6c8ebf;fontSize=16;" parent="1" vertex="1">
                    <mxGeometry x="470" y="481" width="100" height="70" as="geometry"/>
                </mxCell>
                <mxCell id="3TmcrJB_SAuxVXIHY5bZ-6" value="Invoice" style="rounded=1;arcSize=10;whiteSpace=wrap;html=1;align=center;fillColor=#dae8fc;strokeColor=#6c8ebf;fontSize=16;" parent="1" vertex="1">
                    <mxGeometry x="660" y="280" width="100" height="70" as="geometry"/>
                </mxCell>
                <mxCell id="3TmcrJB_SAuxVXIHY5bZ-7" value="Payment" style="rounded=1;arcSize=10;whiteSpace=wrap;html=1;align=center;fillColor=#dae8fc;strokeColor=#6c8ebf;fontSize=16;" parent="1" vertex="1">
                    <mxGeometry x="850" y="480" width="100" height="70" as="geometry"/>
                </mxCell>
                <mxCell id="3TmcrJB_SAuxVXIHY5bZ-8" value="Recruits" style="shape=rhombus;perimeter=rhombusPerimeter;whiteSpace=wrap;html=1;align=center;fillColor=#e1d5e7;strokeColor=#9673a6;fontSize=16;" parent="1" vertex="1">
                    <mxGeometry x="260" y="170" width="120" height="60" as="geometry"/>
                </mxCell>
                <mxCell id="3TmcrJB_SAuxVXIHY5bZ-9" value="Creates" style="shape=rhombus;perimeter=rhombusPerimeter;whiteSpace=wrap;html=1;align=center;fillColor=#e1d5e7;strokeColor=#9673a6;fontSize=16;" parent="1" vertex="1">
                    <mxGeometry x="80" y="70" width="120" height="80" as="geometry"/>
                </mxCell>
                <mxCell id="3TmcrJB_SAuxVXIHY5bZ-10" value="Enrolls" style="shape=rhombus;perimeter=rhombusPerimeter;whiteSpace=wrap;html=1;align=center;fillColor=#e1d5e7;strokeColor=#9673a6;fontSize=16;" parent="1" vertex="1">
                    <mxGeometry x="460" y="264" width="120" height="60" as="geometry"/>
                </mxCell>
                <mxCell id="3TmcrJB_SAuxVXIHY5bZ-11" value="Reaches" style="shape=rhombus;perimeter=rhombusPerimeter;whiteSpace=wrap;html=1;align=center;fillColor=#e1d5e7;strokeColor=#9673a6;fontSize=16;" parent="1" vertex="1">
                    <mxGeometry x="350" y="380" width="120" height="60" as="geometry"/>
                </mxCell>
                <mxCell id="3TmcrJB_SAuxVXIHY5bZ-12" value="Delivers" style="shape=rhombus;perimeter=rhombusPerimeter;whiteSpace=wrap;html=1;align=center;fillColor=#e1d5e7;strokeColor=#9673a6;fontSize=16;" parent="1" vertex="1">
                    <mxGeometry x="170" y="380" width="120" height="60" as="geometry"/>
                </mxCell>
                <mxCell id="3TmcrJB_SAuxVXIHY5bZ-13" value="Subscribes" style="shape=rhombus;perimeter=rhombusPerimeter;whiteSpace=wrap;html=1;align=center;fillColor=#e1d5e7;strokeColor=#9673a6;fontSize=16;" parent="1" vertex="1">
                    <mxGeometry x="263" y="486" width="120" height="60" as="geometry"/>
                </mxCell>
                <mxCell id="3TmcrJB_SAuxVXIHY5bZ-14" value="Receives" style="shape=rhombus;perimeter=rhombusPerimeter;whiteSpace=wrap;html=1;align=center;fillColor=#e1d5e7;strokeColor=#9673a6;fontSize=16;" parent="1" vertex="1">
                    <mxGeometry x="568" y="377.5" width="120" height="65" as="geometry"/>
                </mxCell>
                <mxCell id="3TmcrJB_SAuxVXIHY5bZ-15" value="Makes" style="shape=rhombus;perimeter=rhombusPerimeter;whiteSpace=wrap;html=1;align=center;fillColor=#e1d5e7;strokeColor=#9673a6;fontSize=16;" parent="1" vertex="1">
                    <mxGeometry x="660" y="483" width="120" height="65" as="geometry"/>
                </mxCell>
                <mxCell id="3TmcrJB_SAuxVXIHY5bZ-16" value="Acknowledges" style="shape=rhombus;perimeter=rhombusPerimeter;whiteSpace=wrap;html=1;align=center;fillColor=#e1d5e7;strokeColor=#9673a6;fontSize=16;" parent="1" vertex="1">
                    <mxGeometry x="839" y="70" width="120" height="80" as="geometry"/>
                </mxCell>
                <mxCell id="3TmcrJB_SAuxVXIHY5bZ-17" value="Creates" style="shape=rhombus;perimeter=rhombusPerimeter;whiteSpace=wrap;html=1;align=center;fillColor=#e1d5e7;strokeColor=#9673a6;fontSize=16;" parent="1" vertex="1">
                    <mxGeometry x="650" y="170" width="120" height="65" as="geometry"/>
                </mxCell>
                <mxCell id="3TmcrJB_SAuxVXIHY5bZ-18" value="" style="edgeStyle=entityRelationEdgeStyle;fontSize=16;html=1;endArrow=ERmandOne;rounded=0;" parent="1" source="3TmcrJB_SAuxVXIHY5bZ-9" target="3TmcrJB_SAuxVXIHY5bZ-1" edge="1">
                    <mxGeometry width="100" height="100" relative="1" as="geometry">
                        <mxPoint x="220" y="140" as="sourcePoint"/>
                        <mxPoint x="320" y="40" as="targetPoint"/>
                    </mxGeometry>
                </mxCell>
                <mxCell id="3TmcrJB_SAuxVXIHY5bZ-23" value="" style="fontSize=16;html=1;endArrow=ERoneToMany;rounded=0;exitX=0.5;exitY=1;exitDx=0;exitDy=0;entryX=0.5;entryY=0;entryDx=0;entryDy=0;" parent="1" source="3TmcrJB_SAuxVXIHY5bZ-9" target="3TmcrJB_SAuxVXIHY5bZ-2" edge="1">
                    <mxGeometry width="100" height="100" relative="1" as="geometry">
                        <mxPoint x="130" y="170" as="sourcePoint"/>
                        <mxPoint x="150" y="480" as="targetPoint"/>
                    </mxGeometry>
                </mxCell>
                <mxCell id="3TmcrJB_SAuxVXIHY5bZ-25" value="" style="fontSize=16;html=1;endArrow=ERmandOne;rounded=0;exitX=0.5;exitY=0;exitDx=0;exitDy=0;" parent="1" source="3TmcrJB_SAuxVXIHY5bZ-8" edge="1">
                    <mxGeometry width="100" height="100" relative="1" as="geometry">
                        <mxPoint x="220" y="120" as="sourcePoint"/>
                        <mxPoint x="470" y="128" as="targetPoint"/>
                        <Array as="points">
                            <mxPoint x="320" y="128"/>
                        </Array>
                    </mxGeometry>
                </mxCell>
                <mxCell id="3TmcrJB_SAuxVXIHY5bZ-26" value="" style="fontSize=16;html=1;endArrow=ERoneToMany;rounded=0;exitX=0.5;exitY=1;exitDx=0;exitDy=0;entryX=0.5;entryY=0;entryDx=0;entryDy=0;" parent="1" source="3TmcrJB_SAuxVXIHY5bZ-8" target="3TmcrJB_SAuxVXIHY5bZ-4" edge="1">
                    <mxGeometry width="100" height="100" relative="1" as="geometry">
                        <mxPoint x="160" y="150" as="sourcePoint"/>
                        <mxPoint x="160" y="490" as="targetPoint"/>
                    </mxGeometry>
                </mxCell>
                <mxCell id="3TmcrJB_SAuxVXIHY5bZ-27" value="" style="fontSize=16;html=1;endArrow=ERoneToMany;rounded=0;exitX=0.5;exitY=1;exitDx=0;exitDy=0;entryX=1;entryY=0.25;entryDx=0;entryDy=0;" parent="1" source="3TmcrJB_SAuxVXIHY5bZ-12" target="3TmcrJB_SAuxVXIHY5bZ-2" edge="1">
                    <mxGeometry width="100" height="100" relative="1" as="geometry">
                        <mxPoint x="150" y="150" as="sourcePoint"/>
                        <mxPoint x="150" y="490" as="targetPoint"/>
                        <Array as="points">
                            <mxPoint x="230" y="498"/>
                        </Array>
                    </mxGeometry>
                </mxCell>
                <mxCell id="3TmcrJB_SAuxVXIHY5bZ-28" value="" style="fontSize=16;html=1;endArrow=ERoneToMany;rounded=0;exitX=0.5;exitY=0;exitDx=0;exitDy=0;entryX=0;entryY=0.5;entryDx=0;entryDy=0;" parent="1" source="3TmcrJB_SAuxVXIHY5bZ-12" target="3TmcrJB_SAuxVXIHY5bZ-4" edge="1">
                    <mxGeometry width="100" height="100" relative="1" as="geometry">
                        <mxPoint x="240" y="450" as="sourcePoint"/>
                        <mxPoint x="200" y="508.5" as="targetPoint"/>
                        <Array as="points">
                            <mxPoint x="230" y="315"/>
                        </Array>
                    </mxGeometry>
                </mxCell>
                <mxCell id="3TmcrJB_SAuxVXIHY5bZ-29" value="" style="fontSize=16;html=1;endArrow=ERmandOne;rounded=0;exitX=0.5;exitY=0;exitDx=0;exitDy=0;entryX=0.5;entryY=1;entryDx=0;entryDy=0;" parent="1" source="3TmcrJB_SAuxVXIHY5bZ-10" target="3TmcrJB_SAuxVXIHY5bZ-1" edge="1">
                    <mxGeometry width="100" height="100" relative="1" as="geometry">
                        <mxPoint x="390" y="210" as="sourcePoint"/>
                        <mxPoint x="480" y="130" as="targetPoint"/>
                        <Array as="points"/>
                    </mxGeometry>
                </mxCell>
                <mxCell id="3TmcrJB_SAuxVXIHY5bZ-30" value="" style="fontSize=16;html=1;endArrow=ERoneToMany;rounded=0;exitX=0.5;exitY=1;exitDx=0;exitDy=0;entryX=0.5;entryY=0;entryDx=0;entryDy=0;" parent="1" source="3TmcrJB_SAuxVXIHY5bZ-10" target="3TmcrJB_SAuxVXIHY5bZ-5" edge="1">
                    <mxGeometry width="100" height="100" relative="1" as="geometry">
                        <mxPoint x="240" y="450" as="sourcePoint"/>
                        <mxPoint x="200" y="508.5" as="targetPoint"/>
                        <Array as="points"/>
                    </mxGeometry>
                </mxCell>
                <mxCell id="3TmcrJB_SAuxVXIHY5bZ-31" value="" style="fontSize=16;html=1;endArrow=ERoneToMany;rounded=0;exitX=0;exitY=0.5;exitDx=0;exitDy=0;entryX=1;entryY=0.5;entryDx=0;entryDy=0;" parent="1" source="3TmcrJB_SAuxVXIHY5bZ-13" target="3TmcrJB_SAuxVXIHY5bZ-2" edge="1">
                    <mxGeometry width="100" height="100" relative="1" as="geometry">
                        <mxPoint x="240" y="450" as="sourcePoint"/>
                        <mxPoint x="200" y="508.5" as="targetPoint"/>
                        <Array as="points"/>
                    </mxGeometry>
                </mxCell>
                <mxCell id="3TmcrJB_SAuxVXIHY5bZ-32" value="" style="fontSize=16;html=1;endArrow=ERoneToMany;rounded=0;exitX=1;exitY=0.5;exitDx=0;exitDy=0;" parent="1" source="3TmcrJB_SAuxVXIHY5bZ-13" target="3TmcrJB_SAuxVXIHY5bZ-5" edge="1">
                    <mxGeometry width="100" height="100" relative="1" as="geometry">
                        <mxPoint x="273" y="526" as="sourcePoint"/>
                        <mxPoint x="200" y="526" as="targetPoint"/>
                        <Array as="points"/>
                    </mxGeometry>
                </mxCell>
                <mxCell id="3TmcrJB_SAuxVXIHY5bZ-33" value="" style="fontSize=16;html=1;endArrow=ERmandOne;rounded=0;exitX=0;exitY=0.5;exitDx=0;exitDy=0;entryX=0.5;entryY=1;entryDx=0;entryDy=0;" parent="1" source="3TmcrJB_SAuxVXIHY5bZ-11" target="3TmcrJB_SAuxVXIHY5bZ-4" edge="1">
                    <mxGeometry width="100" height="100" relative="1" as="geometry">
                        <mxPoint x="390" y="210" as="sourcePoint"/>
                        <mxPoint x="480" y="130" as="targetPoint"/>
                        <Array as="points">
                            <mxPoint x="320" y="410"/>
                        </Array>
                    </mxGeometry>
                </mxCell>
                <mxCell id="3TmcrJB_SAuxVXIHY5bZ-34" value="" style="fontSize=16;html=1;endArrow=ERoneToMany;rounded=0;exitX=0.5;exitY=1;exitDx=0;exitDy=0;entryX=0;entryY=0.25;entryDx=0;entryDy=0;" parent="1" source="3TmcrJB_SAuxVXIHY5bZ-11" target="3TmcrJB_SAuxVXIHY5bZ-5" edge="1">
                    <mxGeometry width="100" height="100" relative="1" as="geometry">
                        <mxPoint x="393" y="526" as="sourcePoint"/>
                        <mxPoint x="480" y="526" as="targetPoint"/>
                        <Array as="points">
                            <mxPoint x="410" y="499"/>
                        </Array>
                    </mxGeometry>
                </mxCell>
                <mxCell id="3TmcrJB_SAuxVXIHY5bZ-35" value="" style="fontSize=16;html=1;endArrow=ERmandOne;rounded=0;exitX=0.5;exitY=0;exitDx=0;exitDy=0;" parent="1" source="3TmcrJB_SAuxVXIHY5bZ-17" edge="1">
                    <mxGeometry width="100" height="100" relative="1" as="geometry">
                        <mxPoint x="390" y="210" as="sourcePoint"/>
                        <mxPoint x="570" y="130" as="targetPoint"/>
                        <Array as="points">
                            <mxPoint x="710" y="130"/>
                        </Array>
                    </mxGeometry>
                </mxCell>
                <mxCell id="3TmcrJB_SAuxVXIHY5bZ-36" value="" style="fontSize=16;html=1;endArrow=ERoneToMany;rounded=0;exitX=0.5;exitY=1;exitDx=0;exitDy=0;entryX=0.5;entryY=0;entryDx=0;entryDy=0;" parent="1" source="3TmcrJB_SAuxVXIHY5bZ-17" target="3TmcrJB_SAuxVXIHY5bZ-6" edge="1">
                    <mxGeometry width="100" height="100" relative="1" as="geometry">
                        <mxPoint x="709" y="235" as="sourcePoint"/>
                        <mxPoint x="709" y="280" as="targetPoint"/>
                        <Array as="points"/>
                    </mxGeometry>
                </mxCell>
                <mxCell id="3TmcrJB_SAuxVXIHY5bZ-37" value="" style="fontSize=16;html=1;endArrow=ERoneToMany;rounded=0;exitX=1;exitY=0.5;exitDx=0;exitDy=0;entryX=0.5;entryY=1;entryDx=0;entryDy=0;" parent="1" source="3TmcrJB_SAuxVXIHY5bZ-14" target="3TmcrJB_SAuxVXIHY5bZ-6" edge="1">
                    <mxGeometry width="100" height="100" relative="1" as="geometry">
                        <mxPoint x="720" y="245" as="sourcePoint"/>
                        <mxPoint x="720" y="290" as="targetPoint"/>
                        <Array as="points">
                            <mxPoint x="710" y="410"/>
                        </Array>
                    </mxGeometry>
                </mxCell>
                <mxCell id="3TmcrJB_SAuxVXIHY5bZ-38" value="" style="fontSize=16;html=1;endArrow=ERmandOne;rounded=0;exitX=0.5;exitY=1;exitDx=0;exitDy=0;entryX=1;entryY=0.25;entryDx=0;entryDy=0;" parent="1" source="3TmcrJB_SAuxVXIHY5bZ-14" target="3TmcrJB_SAuxVXIHY5bZ-5" edge="1">
                    <mxGeometry width="100" height="100" relative="1" as="geometry">
                        <mxPoint x="530" y="220" as="sourcePoint"/>
                        <mxPoint x="530" y="155" as="targetPoint"/>
                        <Array as="points">
                            <mxPoint x="628" y="500"/>
                        </Array>
                    </mxGeometry>
                </mxCell>
                <mxCell id="3TmcrJB_SAuxVXIHY5bZ-39" value="" style="fontSize=16;html=1;endArrow=ERoneToMany;rounded=0;exitX=1;exitY=0.5;exitDx=0;exitDy=0;entryX=0;entryY=0.5;entryDx=0;entryDy=0;" parent="1" source="3TmcrJB_SAuxVXIHY5bZ-15" target="3TmcrJB_SAuxVXIHY5bZ-7" edge="1">
                    <mxGeometry width="100" height="100" relative="1" as="geometry">
                        <mxPoint x="647" y="387.5" as="sourcePoint"/>
                        <mxPoint x="670" y="325" as="targetPoint"/>
                        <Array as="points"/>
                    </mxGeometry>
                </mxCell>
                <mxCell id="3TmcrJB_SAuxVXIHY5bZ-40" value="" style="fontSize=16;html=1;endArrow=ERmandOne;rounded=0;exitX=0;exitY=0.5;exitDx=0;exitDy=0;entryX=1;entryY=0.5;entryDx=0;entryDy=0;" parent="1" source="3TmcrJB_SAuxVXIHY5bZ-15" target="3TmcrJB_SAuxVXIHY5bZ-5" edge="1">
                    <mxGeometry width="100" height="100" relative="1" as="geometry">
                        <mxPoint x="647" y="452.5" as="sourcePoint"/>
                        <mxPoint x="580" y="508.5" as="targetPoint"/>
                        <Array as="points"/>
                    </mxGeometry>
                </mxCell>
                <mxCell id="3TmcrJB_SAuxVXIHY5bZ-41" value="" style="fontSize=16;html=1;endArrow=ERoneToMany;rounded=0;exitX=0.5;exitY=1;exitDx=0;exitDy=0;entryX=0.5;entryY=0;entryDx=0;entryDy=0;" parent="1" source="3TmcrJB_SAuxVXIHY5bZ-16" target="3TmcrJB_SAuxVXIHY5bZ-7" edge="1">
                    <mxGeometry width="100" height="100" relative="1" as="geometry">
                        <mxPoint x="790" y="525.5" as="sourcePoint"/>
                        <mxPoint x="860" y="525" as="targetPoint"/>
                        <Array as="points"/>
                    </mxGeometry>
                </mxCell>
                <mxCell id="3TmcrJB_SAuxVXIHY5bZ-42" value="" style="fontSize=16;html=1;endArrow=ERmandOne;rounded=0;exitX=0;exitY=0.5;exitDx=0;exitDy=0;entryX=1;entryY=0.5;entryDx=0;entryDy=0;" parent="1" source="3TmcrJB_SAuxVXIHY5bZ-16" target="3TmcrJB_SAuxVXIHY5bZ-1" edge="1">
                    <mxGeometry width="100" height="100" relative="1" as="geometry">
                        <mxPoint x="720" y="180" as="sourcePoint"/>
                        <mxPoint x="580" y="140" as="targetPoint"/>
                        <Array as="points"/>
                    </mxGeometry>
                </mxCell>
            </root>
        </mxGraphModel>
    </diagram>
</mxfile>